<mxfile host="app.diagrams.net" agent="Mozilla/5.0 (Windows NT 10.0; Win64; x64) AppleWebKit/537.36 (KHTML, like Gecko) Chrome/135.0.0.0 Safari/537.36 Edg/135.0.0.0" version="26.2.8">
  <diagram name="Страница — 1" id="HIC9U-WaALs6OihNuVmm">
    <mxGraphModel dx="924" dy="1334" grid="1" gridSize="10" guides="1" tooltips="1" connect="1" arrows="1" fold="1" page="0" pageScale="1" pageWidth="827" pageHeight="1169" math="0" shadow="0">
      <root>
        <mxCell id="0" />
        <mxCell id="1" parent="0" />
        <mxCell id="pZP6vkBFgsC0VMY_rqyn-1" value="Блок-схема для управления автомобилем" style="text;html=1;align=center;verticalAlign=middle;whiteSpace=wrap;rounded=0;" vertex="1" parent="1">
          <mxGeometry x="-70" y="-580" width="60" height="30" as="geometry" />
        </mxCell>
        <mxCell id="pZP6vkBFgsC0VMY_rqyn-9" style="edgeStyle=none;curved=1;rounded=0;orthogonalLoop=1;jettySize=auto;html=1;fontSize=12;startSize=8;endSize=8;" edge="1" parent="1" source="pZP6vkBFgsC0VMY_rqyn-2" target="pZP6vkBFgsC0VMY_rqyn-4">
          <mxGeometry relative="1" as="geometry" />
        </mxCell>
        <mxCell id="pZP6vkBFgsC0VMY_rqyn-2" value="начало" style="rounded=1;whiteSpace=wrap;html=1;" vertex="1" parent="1">
          <mxGeometry x="-120" y="-520" width="120" height="60" as="geometry" />
        </mxCell>
        <mxCell id="pZP6vkBFgsC0VMY_rqyn-3" value="Конец" style="rounded=1;whiteSpace=wrap;html=1;" vertex="1" parent="1">
          <mxGeometry x="-130" y="-100" width="120" height="60" as="geometry" />
        </mxCell>
        <mxCell id="pZP6vkBFgsC0VMY_rqyn-10" style="edgeStyle=none;curved=1;rounded=0;orthogonalLoop=1;jettySize=auto;html=1;exitX=0.5;exitY=1;exitDx=0;exitDy=0;fontSize=12;startSize=8;endSize=8;" edge="1" parent="1" source="pZP6vkBFgsC0VMY_rqyn-4" target="pZP6vkBFgsC0VMY_rqyn-5">
          <mxGeometry relative="1" as="geometry" />
        </mxCell>
        <mxCell id="pZP6vkBFgsC0VMY_rqyn-4" value="беру ключи от машины" style="shape=parallelogram;perimeter=parallelogramPerimeter;whiteSpace=wrap;html=1;fixedSize=1;" vertex="1" parent="1">
          <mxGeometry x="-130" y="-450" width="120" height="60" as="geometry" />
        </mxCell>
        <mxCell id="pZP6vkBFgsC0VMY_rqyn-11" style="edgeStyle=none;curved=1;rounded=0;orthogonalLoop=1;jettySize=auto;html=1;exitX=0.5;exitY=1;exitDx=0;exitDy=0;fontSize=12;startSize=8;endSize=8;" edge="1" parent="1" source="pZP6vkBFgsC0VMY_rqyn-5" target="pZP6vkBFgsC0VMY_rqyn-6">
          <mxGeometry relative="1" as="geometry" />
        </mxCell>
        <mxCell id="pZP6vkBFgsC0VMY_rqyn-5" value="Иду к машине" style="rounded=0;whiteSpace=wrap;html=1;" vertex="1" parent="1">
          <mxGeometry x="-130" y="-380" width="120" height="60" as="geometry" />
        </mxCell>
        <mxCell id="pZP6vkBFgsC0VMY_rqyn-12" style="edgeStyle=none;curved=1;rounded=0;orthogonalLoop=1;jettySize=auto;html=1;exitX=0.5;exitY=1;exitDx=0;exitDy=0;fontSize=12;startSize=8;endSize=8;" edge="1" parent="1" source="pZP6vkBFgsC0VMY_rqyn-6" target="pZP6vkBFgsC0VMY_rqyn-7">
          <mxGeometry relative="1" as="geometry" />
        </mxCell>
        <mxCell id="pZP6vkBFgsC0VMY_rqyn-6" value="Сажусь" style="rounded=0;whiteSpace=wrap;html=1;" vertex="1" parent="1">
          <mxGeometry x="-130" y="-310" width="120" height="60" as="geometry" />
        </mxCell>
        <mxCell id="pZP6vkBFgsC0VMY_rqyn-14" style="edgeStyle=none;curved=1;rounded=0;orthogonalLoop=1;jettySize=auto;html=1;exitX=0.5;exitY=1;exitDx=0;exitDy=0;entryX=0.5;entryY=0;entryDx=0;entryDy=0;fontSize=12;startSize=8;endSize=8;" edge="1" parent="1" source="pZP6vkBFgsC0VMY_rqyn-7" target="pZP6vkBFgsC0VMY_rqyn-8">
          <mxGeometry relative="1" as="geometry" />
        </mxCell>
        <mxCell id="pZP6vkBFgsC0VMY_rqyn-7" value="еду до пункта" style="rounded=0;whiteSpace=wrap;html=1;" vertex="1" parent="1">
          <mxGeometry x="-130" y="-240" width="120" height="60" as="geometry" />
        </mxCell>
        <mxCell id="pZP6vkBFgsC0VMY_rqyn-15" style="edgeStyle=none;curved=1;rounded=0;orthogonalLoop=1;jettySize=auto;html=1;exitX=0.5;exitY=1;exitDx=0;exitDy=0;fontSize=12;startSize=8;endSize=8;" edge="1" parent="1" source="pZP6vkBFgsC0VMY_rqyn-8" target="pZP6vkBFgsC0VMY_rqyn-3">
          <mxGeometry relative="1" as="geometry" />
        </mxCell>
        <mxCell id="pZP6vkBFgsC0VMY_rqyn-8" value="Выхожу из машины" style="rounded=0;whiteSpace=wrap;html=1;" vertex="1" parent="1">
          <mxGeometry x="-130" y="-170" width="120" height="60" as="geometry" />
        </mxCell>
        <mxCell id="pZP6vkBFgsC0VMY_rqyn-19" value="" style="rhombus;whiteSpace=wrap;html=1;" vertex="1" parent="1">
          <mxGeometry x="170" y="-430" width="80" height="80" as="geometry" />
        </mxCell>
        <mxCell id="pZP6vkBFgsC0VMY_rqyn-20" value="Блок-схема для покупки велосипедных шин" style="text;html=1;align=center;verticalAlign=middle;whiteSpace=wrap;rounded=0;" vertex="1" parent="1">
          <mxGeometry x="200" y="-610" width="60" height="30" as="geometry" />
        </mxCell>
        <mxCell id="pZP6vkBFgsC0VMY_rqyn-21" value="начало" style="rounded=1;whiteSpace=wrap;html=1;" vertex="1" parent="1">
          <mxGeometry x="160" y="-560" width="120" height="60" as="geometry" />
        </mxCell>
        <mxCell id="pZP6vkBFgsC0VMY_rqyn-22" value="" style="rounded=0;whiteSpace=wrap;html=1;" vertex="1" parent="1">
          <mxGeometry x="40" y="-320" width="120" height="60" as="geometry" />
        </mxCell>
        <mxCell id="pZP6vkBFgsC0VMY_rqyn-23" value="" style="rounded=0;whiteSpace=wrap;html=1;" vertex="1" parent="1">
          <mxGeometry x="280" y="-320" width="120" height="60" as="geometry" />
        </mxCell>
        <mxCell id="pZP6vkBFgsC0VMY_rqyn-25" value="" style="endArrow=classic;html=1;rounded=0;fontSize=12;startSize=8;endSize=8;curved=1;exitX=0;exitY=0.5;exitDx=0;exitDy=0;" edge="1" parent="1" source="pZP6vkBFgsC0VMY_rqyn-19">
          <mxGeometry width="50" height="50" relative="1" as="geometry">
            <mxPoint x="300" y="-340" as="sourcePoint" />
            <mxPoint x="100" y="-390" as="targetPoint" />
          </mxGeometry>
        </mxCell>
        <mxCell id="pZP6vkBFgsC0VMY_rqyn-26" value="" style="endArrow=classic;html=1;rounded=0;fontSize=12;startSize=8;endSize=8;curved=1;entryX=0.5;entryY=0;entryDx=0;entryDy=0;" edge="1" parent="1" target="pZP6vkBFgsC0VMY_rqyn-22">
          <mxGeometry width="50" height="50" relative="1" as="geometry">
            <mxPoint x="100" y="-390" as="sourcePoint" />
            <mxPoint x="140" y="-370" as="targetPoint" />
          </mxGeometry>
        </mxCell>
        <mxCell id="pZP6vkBFgsC0VMY_rqyn-27" value="" style="endArrow=classic;html=1;rounded=0;fontSize=12;startSize=8;endSize=8;curved=1;exitX=1;exitY=0.5;exitDx=0;exitDy=0;" edge="1" parent="1" source="pZP6vkBFgsC0VMY_rqyn-19">
          <mxGeometry width="50" height="50" relative="1" as="geometry">
            <mxPoint x="410" y="-390" as="sourcePoint" />
            <mxPoint x="340" y="-390" as="targetPoint" />
          </mxGeometry>
        </mxCell>
        <mxCell id="pZP6vkBFgsC0VMY_rqyn-28" value="" style="endArrow=classic;html=1;rounded=0;fontSize=12;startSize=8;endSize=8;curved=1;entryX=0.5;entryY=0;entryDx=0;entryDy=0;" edge="1" parent="1">
          <mxGeometry width="50" height="50" relative="1" as="geometry">
            <mxPoint x="340" y="-390" as="sourcePoint" />
            <mxPoint x="340" y="-320" as="targetPoint" />
          </mxGeometry>
        </mxCell>
        <mxCell id="pZP6vkBFgsC0VMY_rqyn-29" value="Блок-схема для написания романа" style="text;html=1;align=center;verticalAlign=middle;whiteSpace=wrap;rounded=0;" vertex="1" parent="1">
          <mxGeometry x="580" y="-630" width="90" height="30" as="geometry" />
        </mxCell>
        <mxCell id="pZP6vkBFgsC0VMY_rqyn-30" value="начало" style="rounded=1;whiteSpace=wrap;html=1;" vertex="1" parent="1">
          <mxGeometry x="560" y="-580" width="120" height="60" as="geometry" />
        </mxCell>
        <mxCell id="pZP6vkBFgsC0VMY_rqyn-31" value="" style="shape=trapezoid;perimeter=trapezoidPerimeter;whiteSpace=wrap;html=1;fixedSize=1;" vertex="1" parent="1">
          <mxGeometry x="560" y="-510" width="120" height="60" as="geometry" />
        </mxCell>
        <mxCell id="pZP6vkBFgsC0VMY_rqyn-32" value="" style="shape=trapezoid;perimeter=trapezoidPerimeter;whiteSpace=wrap;html=1;fixedSize=1;rotation=-180;" vertex="1" parent="1">
          <mxGeometry x="560" y="-350" width="120" height="60" as="geometry" />
        </mxCell>
        <mxCell id="pZP6vkBFgsC0VMY_rqyn-33" value="" style="rounded=0;whiteSpace=wrap;html=1;" vertex="1" parent="1">
          <mxGeometry x="565" y="-430" width="120" height="60" as="geometry" />
        </mxCell>
      </root>
    </mxGraphModel>
  </diagram>
</mxfile>
